<svg xmlns="http://www.w3.org/2000/svg" version="1.1" xmlns:xlink="http://www.w3.org/1999/xlink" xmlns:svgjs="http://svgjs.dev/svgjs" width="1440" height="560" preserveAspectRatio="none" viewBox="0 0 1440 560">
    <g mask="url(&quot;#SvgjsMask1033&quot;)" fill="none">
        <path d="M606 209L605 -12" stroke-width="6" stroke="url(&quot;#SvgjsLinearGradient1034&quot;)" stroke-linecap="round" class="Up"></path>
        <path d="M837 538L836 379" stroke-width="6" stroke="url(&quot;#SvgjsLinearGradient1034&quot;)" stroke-linecap="round" class="Up"></path>
        <path d="M905 448L904 661" stroke-width="8" stroke="url(&quot;#SvgjsLinearGradient1035&quot;)" stroke-linecap="round" class="Down"></path>
        <path d="M1270 280L1269 92" stroke-width="6" stroke="url(&quot;#SvgjsLinearGradient1034&quot;)" stroke-linecap="round" class="Up"></path>
        <path d="M798 356L797 721" stroke-width="8" stroke="url(&quot;#SvgjsLinearGradient1035&quot;)" stroke-linecap="round" class="Down"></path>
        <path d="M345 163L344 21" stroke-width="10" stroke="url(&quot;#SvgjsLinearGradient1035&quot;)" stroke-linecap="round" class="Down"></path>
        <path d="M375 391L374 632" stroke-width="8" stroke="url(&quot;#SvgjsLinearGradient1035&quot;)" stroke-linecap="round" class="Down"></path>
        <path d="M137 360L136 674" stroke-width="6" stroke="url(&quot;#SvgjsLinearGradient1035&quot;)" stroke-linecap="round" class="Down"></path>
        <path d="M1135 536L1134 238" stroke-width="6" stroke="url(&quot;#SvgjsLinearGradient1035&quot;)" stroke-linecap="round" class="Down"></path>
        <path d="M904 84L903 -179" stroke-width="8" stroke="url(&quot;#SvgjsLinearGradient1034&quot;)" stroke-linecap="round" class="Up"></path>
        <path d="M935 462L934 745" stroke-width="10" stroke="url(&quot;#SvgjsLinearGradient1034&quot;)" stroke-linecap="round" class="Up"></path>
        <path d="M873 239L872 520" stroke-width="8" stroke="url(&quot;#SvgjsLinearGradient1035&quot;)" stroke-linecap="round" class="Down"></path>
        <path d="M344 240L343 -143" stroke-width="10" stroke="url(&quot;#SvgjsLinearGradient1035&quot;)" stroke-linecap="round" class="Down"></path>
        <path d="M899 497L898 698" stroke-width="8" stroke="url(&quot;#SvgjsLinearGradient1035&quot;)" stroke-linecap="round" class="Down"></path>
        <path d="M158 534L157 823" stroke-width="10" stroke="url(&quot;#SvgjsLinearGradient1035&quot;)" stroke-linecap="round" class="Down"></path>
        <path d="M1352 116L1351 315" stroke-width="10" stroke="url(&quot;#SvgjsLinearGradient1035&quot;)" stroke-linecap="round" class="Down"></path>
        <path d="M1433 286L1432 109" stroke-width="10" stroke="url(&quot;#SvgjsLinearGradient1035&quot;)" stroke-linecap="round" class="Down"></path>
        <path d="M522 12L521 397" stroke-width="6" stroke="url(&quot;#SvgjsLinearGradient1035&quot;)" stroke-linecap="round" class="Down"></path>
        <path d="M1244 11L1243 -144" stroke-width="6" stroke="url(&quot;#SvgjsLinearGradient1035&quot;)" stroke-linecap="round" class="Down"></path>
        <path d="M932 323L931 -36" stroke-width="10" stroke="url(&quot;#SvgjsLinearGradient1035&quot;)" stroke-linecap="round" class="Down"></path>
        <path d="M965 16L964 -178" stroke-width="8" stroke="url(&quot;#SvgjsLinearGradient1035&quot;)" stroke-linecap="round" class="Down"></path>
        <path d="M649 210L648 624" stroke-width="8" stroke="url(&quot;#SvgjsLinearGradient1034&quot;)" stroke-linecap="round" class="Up"></path>
        <path d="M1167 330L1166 30" stroke-width="10" stroke="url(&quot;#SvgjsLinearGradient1034&quot;)" stroke-linecap="round" class="Up"></path>
        <path d="M21 214L20 -161" stroke-width="8" stroke="url(&quot;#SvgjsLinearGradient1034&quot;)" stroke-linecap="round" class="Up"></path>
        <path d="M1006 171L1005 -224" stroke-width="6" stroke="url(&quot;#SvgjsLinearGradient1034&quot;)" stroke-linecap="round" class="Up"></path>
        <path d="M44 74L43 362" stroke-width="8" stroke="url(&quot;#SvgjsLinearGradient1034&quot;)" stroke-linecap="round" class="Up"></path>
        <path d="M1272 474L1271 225" stroke-width="10" stroke="url(&quot;#SvgjsLinearGradient1035&quot;)" stroke-linecap="round" class="Down"></path>
        <path d="M467 451L466 612" stroke-width="10" stroke="url(&quot;#SvgjsLinearGradient1034&quot;)" stroke-linecap="round" class="Up"></path>
        <path d="M737 317L736 608" stroke-width="6" stroke="url(&quot;#SvgjsLinearGradient1034&quot;)" stroke-linecap="round" class="Up"></path>
        <path d="M504 270L503 -93" stroke-width="8" stroke="url(&quot;#SvgjsLinearGradient1034&quot;)" stroke-linecap="round" class="Up"></path>
        <path d="M123 27L122 183" stroke-width="10" stroke="url(&quot;#SvgjsLinearGradient1035&quot;)" stroke-linecap="round" class="Down"></path>
        <path d="M232 469L231 86" stroke-width="6" stroke="url(&quot;#SvgjsLinearGradient1035&quot;)" stroke-linecap="round" class="Down"></path>
        <path d="M1034 82L1033 349" stroke-width="6" stroke="url(&quot;#SvgjsLinearGradient1035&quot;)" stroke-linecap="round" class="Down"></path>
        <path d="M1200 512L1199 288" stroke-width="8" stroke="url(&quot;#SvgjsLinearGradient1035&quot;)" stroke-linecap="round" class="Down"></path>
        <path d="M1223 284L1222 448" stroke-width="6" stroke="url(&quot;#SvgjsLinearGradient1034&quot;)" stroke-linecap="round" class="Up"></path>
        <path d="M1274 186L1273 444" stroke-width="10" stroke="url(&quot;#SvgjsLinearGradient1035&quot;)" stroke-linecap="round" class="Down"></path>
    </g>
    <defs>
        <mask id="SvgjsMask1033">
            <rect width="1440" height="560" fill="#ffffff"></rect>
        </mask>
        <linearGradient x1="0%" y1="100%" x2="0%" y2="0%" id="SvgjsLinearGradient1034">
            <stop stop-color="rgba(249, 115, 22, 0)" offset="0"></stop>
            <stop stop-color="rgba(249, 115, 22, 0.3)" offset="1"></stop>
        </linearGradient>
        <linearGradient x1="0%" y1="0%" x2="0%" y2="100%" id="SvgjsLinearGradient1035">
            <stop stop-color="rgba(249, 115, 22, 0)" offset="0"></stop>
            <stop stop-color="rgba(249, 115, 22, 0.3)" offset="1"></stop>
        </linearGradient>
    </defs>
</svg>